<svg width="168" height="52" viewBox="0 0 168 52" fill="none" xmlns="http://www.w3.org/2000/svg">
<path fill-rule="evenodd" clip-rule="evenodd" d="M163.501 49.5194L163.501 49.5195L163.496 49.5358C163.133 50.6788 162.153 51.1347 161.059 51.343C160.634 51.425 160.189 51.425 159.755 51.425C106.885 51.4283 54.0175 51.4299 1.14798 51.4299H0C2.34678 44.0722 4.68488 36.7404 7.02198 29.4119C10.0581 19.8912 13.0926 10.3758 16.1423 0.815375C17.5858 2.04944 19.017 1.59715 20.4682 1.13851L20.4684 1.13847C20.6082 1.09429 20.7482 1.05005 20.8884 1.00725C21.4303 0.842425 21.997 0.758423 22.5635 0.674462L22.5635 0.67446C22.8199 0.636455 23.0763 0.598459 23.3303 0.552979L23.3754 0.620375C23.4127 0.676041 23.4498 0.731351 23.4861 0.787495L18.9816 12.2737L18.9677 12.309L18.9432 12.3715C14.3057 24.1969 9.65401 36.0586 4.94452 48.0647C58.6816 47.494 112.201 46.5297 165.964 45.0242C164.516 46.3154 164.011 47.9096 163.501 49.5194ZM48.8942 32.4915C49.0884 32.2391 49.2806 31.985 49.4728 31.7309L49.4729 31.7308L49.4729 31.7308L49.4729 31.7307L49.473 31.7307L49.473 31.7306L49.4731 31.7305L49.4731 31.7305C49.914 31.1477 50.3548 30.5649 50.8195 30.002C52.2496 28.2735 53.7436 26.5925 55.7985 25.5823C56.5152 25.2297 57.3319 24.964 58.1224 24.8968C59.969 24.741 61.0366 25.9726 60.5872 27.788C60.3618 28.6967 60.0173 29.5757 59.6728 30.4546L59.6728 30.4547C59.5187 30.8479 59.3646 31.2412 59.2211 31.6371C59.1244 31.9027 59.0293 32.1701 59.108 32.5292C59.1791 32.4291 59.2503 32.3293 59.3216 32.2294C59.4641 32.0297 59.6066 31.83 59.7476 31.6289C61.4499 29.1968 63.3145 26.9238 66.0205 25.5331C67.1865 24.9328 68.428 24.5868 69.7268 25.0526C70.8256 25.4478 71.5013 26.3645 71.3307 27.5306C71.1323 28.8934 70.8043 30.2628 70.3254 31.5518C69.7229 33.1762 69.0459 34.7734 68.3688 36.3707L68.3687 36.3709C68.0765 37.0603 67.7843 37.7497 67.4981 38.4413C67.4926 38.4545 67.487 38.4677 67.4814 38.4808L67.467 38.5139C67.4559 38.5391 67.4445 38.5643 67.4332 38.5896C67.3648 38.7418 67.2961 38.8946 67.2751 39.053C67.2488 39.2515 67.2472 39.5696 67.3587 39.6434C67.5227 39.75 67.8589 39.7795 68.018 39.6779C68.6838 39.258 69.3267 38.7972 69.9466 38.3118C70.1376 38.1623 70.3105 37.989 70.4832 37.816C70.6782 37.6206 70.8729 37.4255 71.0929 37.2655C71.2451 37.155 71.4523 37.1197 71.6591 37.0844L71.6592 37.0844C71.7532 37.0684 71.8472 37.0524 71.9359 37.0293C71.9406 37.1299 71.9587 37.2388 71.9768 37.3476C72.0156 37.5812 72.0545 37.8147 71.9605 37.9657C70.9912 39.5204 69.6497 40.711 68.0983 41.6672C66.7765 42.4822 65.3382 42.9578 63.7918 43.1202C62.0829 43.2989 61.0448 42.1837 61.6155 40.5618C62.116 39.1437 62.6983 37.7552 63.2808 36.3664L63.281 36.3658L63.281 36.3658L63.281 36.3658L63.281 36.3657L63.281 36.3657L63.2811 36.3657L63.2811 36.3656C63.6166 35.5656 63.9522 34.7654 64.2723 33.9593C64.7757 32.6902 65.2502 31.4082 65.7243 30.1273C65.8371 29.8225 65.95 29.5177 66.0631 29.2132C66.1566 28.9606 66.2566 28.6818 66.2402 28.4227C66.2238 28.1505 66.1468 27.7782 65.9582 27.6503C65.7728 27.5256 65.3415 27.5502 65.1497 27.6896C64.4953 28.1702 63.8328 28.6704 63.2899 29.2689C61.03 31.7633 59.4999 34.7251 58.0256 37.7132C57.3007 39.181 56.5939 40.6586 55.915 42.146C55.6312 42.7676 55.1737 43.13 54.5292 43.112C53.719 43.089 52.8925 43.0169 52.1086 42.825C51.2558 42.6151 51.1197 42.251 51.4329 41.4343C52.0115 39.9232 52.5925 38.4128 53.1735 36.9024L53.1739 36.9014L53.1743 36.9004L53.1746 36.8994L53.175 36.8984L53.1763 36.8949L53.1777 36.8915L53.1784 36.8895L53.179 36.8881L53.1793 36.8872L53.1799 36.8857L53.1802 36.8848L53.1808 36.8833L53.1812 36.8824C54.116 34.4522 55.0508 32.022 55.9756 29.5887C56.0157 29.4831 56.0643 29.3733 56.1138 29.2611C56.3608 28.7026 56.6331 28.0868 56.0035 27.6552C55.3859 27.2309 54.8591 27.7046 54.4011 28.1164L54.4011 28.1164C54.3192 28.1901 54.2395 28.2618 54.1618 28.326C52.0331 30.0807 50.6195 32.3931 49.401 34.8137C48.4746 36.6548 47.6187 38.5322 46.7633 40.4088L46.7633 40.4089L46.7632 40.409L46.7632 40.409L46.7632 40.4091L46.7631 40.4092L46.7631 40.4092L46.7631 40.4093L46.762 40.4116L46.761 40.4139L46.7599 40.4162L46.7596 40.4168L46.7594 40.4174L46.7591 40.418L46.7588 40.4186C46.5406 40.8974 46.3224 41.3761 46.103 41.8541C45.5897 42.9742 45.3486 43.1841 44.117 43.1333C43.4954 43.1071 42.864 43.0136 42.2671 42.8463C41.393 42.6003 41.247 42.2592 41.5537 41.3916C42.3548 39.1222 43.1594 36.8545 43.9641 34.5868C44.5003 33.0757 45.0365 31.5645 45.5716 30.0529C45.5916 29.9966 45.6133 29.9403 45.6351 29.8839L45.6351 29.8838L45.6351 29.8838C45.7027 29.7085 45.7707 29.5321 45.7881 29.3509C45.7938 29.2861 45.8014 29.2138 45.8094 29.138C45.8492 28.758 45.8983 28.2902 45.7684 28.2259C45.406 28.0488 44.8025 27.9799 44.4843 28.1734C43.9995 28.4689 43.5584 28.8339 43.1165 29.1996C42.8275 29.4388 42.5381 29.6782 42.2359 29.8987C41.9735 30.0906 41.552 30.3234 41.3159 30.2349C40.8157 30.0463 40.96 29.5937 41.1699 29.2001C42.9263 25.889 46.3851 24.6295 49.5436 24.9017C50.5457 24.9886 51.0442 25.8201 50.7293 26.9123C50.4976 27.7139 50.1974 28.4964 49.8973 29.2787L49.8972 29.2789L49.8971 29.2791L49.897 29.2794L49.897 29.2796L49.8969 29.2798L49.8968 29.28L49.8967 29.2802C49.7765 29.5937 49.6562 29.9071 49.5404 30.2218C49.3341 30.7835 49.125 31.3443 48.9159 31.9048L48.9158 31.9051L48.7302 32.4029C48.786 32.4341 48.8401 32.4636 48.8942 32.4915ZM143.659 36.1631L143.66 36.1615C143.985 35.7718 144.31 35.3822 144.643 35.0007C144.684 35.0269 144.726 35.0515 144.77 35.0745C144.553 35.6261 144.335 36.1776 144.118 36.729L144.115 36.735L144.113 36.741L144.111 36.7459C143.582 38.0837 143.054 39.4216 142.535 40.7635C141.935 42.3149 142.722 43.317 144.374 43.0989C147.473 42.6872 149.91 41.0686 152.003 38.8448C152.035 38.8103 152.069 38.7756 152.103 38.7405L152.104 38.7395C152.302 38.5347 152.512 38.318 152.587 38.069C152.646 37.8679 152.607 37.6365 152.567 37.4053L152.567 37.405L152.567 37.4046L152.567 37.4042C152.55 37.304 152.533 37.2039 152.524 37.1064C152.436 37.1265 152.343 37.139 152.25 37.1515C152.047 37.1787 151.844 37.2058 151.699 37.3114C151.396 37.5327 151.107 37.7757 150.819 38.0185L150.819 38.0185C150.417 38.3569 150.016 38.6948 149.576 38.9727C149.238 39.1856 148.833 39.2905 148.428 39.3956C148.247 39.4427 148.065 39.4898 147.89 39.5467C147.911 39.3667 147.921 39.1824 147.931 38.9981C147.953 38.5998 147.975 38.2014 148.109 37.846C149.536 34.0675 150.991 30.3021 152.487 26.5515C152.77 25.8398 152.639 25.4445 151.94 25.2871C151.125 25.105 150.296 24.9525 149.464 24.8886C148.762 24.8344 148.282 25.1723 147.947 25.8742C146.291 29.3509 144.582 32.8129 142.169 35.8403C141.286 36.9503 140.218 37.9171 139.159 38.875C139.068 38.9574 138.977 39.0396 138.886 39.1219C138.711 39.2814 138.404 39.2955 138.096 39.3096C137.954 39.3161 137.813 39.3226 137.684 39.3433C137.682 39.2157 137.669 39.0838 137.655 38.952L137.655 38.9515C137.625 38.6634 137.596 38.3754 137.686 38.1314C138.096 37.0208 138.546 35.9262 138.996 34.8313C139.158 34.4371 139.32 34.0428 139.48 33.6477C139.728 33.0347 139.981 32.4237 140.234 31.8127L140.234 31.8118C140.796 30.4565 141.357 29.1012 141.864 27.7257C142.517 25.9595 141.545 24.7492 139.66 24.8836C139.257 24.9115 138.85 24.9984 138.458 25.1083C136.252 25.7282 134.398 26.9484 132.743 28.4965L132.662 28.5722C132.29 28.9204 131.907 29.2784 131.646 29.7019C131.556 29.8476 131.612 30.0829 131.667 30.3181C131.693 30.4243 131.718 30.5305 131.729 30.6285C131.81 30.6165 131.898 30.613 131.985 30.6094C132.173 30.6018 132.36 30.5941 132.487 30.5022C132.8 30.2756 133.1 30.0293 133.4 29.7832L133.4 29.783C133.797 29.4572 134.194 29.1317 134.621 28.8524C134.912 28.6621 135.265 28.5664 135.617 28.4709C135.775 28.4281 135.933 28.3854 136.085 28.3342C136.072 28.5043 136.07 28.679 136.069 28.8536V28.8538C136.066 29.2314 136.063 29.6089 135.938 29.9397C135.339 31.5159 134.716 33.0831 134.094 34.6504L134.093 34.6525L134.093 34.6529L134.092 34.6534L134.092 34.6539L134.092 34.6543L134.092 34.6548L134.092 34.6552C133.587 35.927 133.081 37.1989 132.589 38.4758C132.316 39.1826 132.082 39.9304 131.998 40.6782C131.826 42.2215 132.995 43.3645 134.529 43.0923C135.449 42.9283 136.433 42.6446 137.187 42.1231C138.66 41.1063 140.065 39.9616 141.358 38.7234C142.184 37.9325 142.922 37.0477 143.659 36.1631ZM30.623 35.7595L30.6229 35.7596C30.2001 36.308 29.7771 36.8565 29.2834 37.3311C27.6762 38.8776 26.0608 40.429 24.3143 41.8082C23.5156 42.4396 22.4316 42.8135 21.4164 43.0447C19.5501 43.4711 18.1791 42.0476 18.7039 40.2207C19.1001 38.8407 19.6221 37.4964 20.1434 36.1542L20.1434 36.154L20.1435 36.1539L20.1436 36.1537L20.1436 36.1536L20.1437 36.1534C20.274 35.8178 20.4043 35.4824 20.5325 35.1466C21.0138 33.8844 21.515 32.6302 22.0162 31.3762L22.0162 31.3762C22.234 30.8314 22.4517 30.2866 22.6677 29.7413C22.681 29.7083 22.6983 29.6755 22.7155 29.6428C22.7514 29.5747 22.7869 29.5071 22.7858 29.4395C22.7823 29.1797 22.7648 28.9199 22.7472 28.6607L22.7472 28.6605L22.7472 28.6601C22.7401 28.5546 22.7329 28.4493 22.7268 28.344C22.6235 28.3635 22.5137 28.3739 22.4038 28.3842C22.1632 28.4069 21.9222 28.4296 21.7477 28.549C21.0767 29.0077 20.4336 29.5077 19.7904 30.0079C19.5941 30.1605 19.3979 30.313 19.2008 30.4645C19.1727 30.4861 19.144 30.5089 19.115 30.532C18.853 30.7404 18.5598 30.9736 18.3251 30.5809C18.1791 30.3366 18.189 29.797 18.3644 29.5937C20.3587 27.2928 22.7645 25.602 25.7919 24.9607C26.3528 24.8426 27.0219 24.8508 27.5499 25.0476C28.6996 25.4757 28.9866 26.5466 28.424 27.9537C27.8927 29.2876 27.3502 30.6177 26.8078 31.9475L26.8076 31.948L26.8074 31.9484L26.8072 31.9489L26.807 31.9494L26.8068 31.9499L26.8066 31.9504C26.4939 32.7172 26.1811 33.4838 25.8706 34.2512C25.7442 34.5632 25.6167 34.8748 25.4891 35.1865L25.489 35.1867L25.4889 35.187L25.4888 35.1872L25.4887 35.1875L25.4886 35.1877C25.0684 36.2141 24.6481 37.241 24.2684 38.2822C24.1919 38.4925 24.228 38.7444 24.264 38.9961C24.2806 39.1116 24.2971 39.227 24.3028 39.3384C24.4155 39.3276 24.5393 39.3299 24.6631 39.3321C24.9335 39.3371 25.2042 39.3421 25.3606 39.2105C25.46 39.1272 25.5597 39.0441 25.6596 38.9608C26.5832 38.1906 27.5181 37.4111 28.2846 36.498C30.9562 33.3148 32.7913 29.6133 34.5756 25.8955C34.9298 25.1575 35.4267 24.8279 36.1598 24.8853C36.965 24.9476 37.7719 25.0886 38.5575 25.2789C39.2085 25.4347 39.4283 25.7774 39.1265 26.5318C37.5849 30.3825 36.1057 34.2577 34.6396 38.1396C34.531 38.4273 34.5309 38.7548 34.5308 39.0829C34.5308 39.2354 34.5308 39.388 34.5198 39.5368C34.6684 39.5004 34.8245 39.4754 34.9806 39.4504L34.9807 39.4504L34.9807 39.4504L34.9808 39.4504L34.9809 39.4504L34.9809 39.4504C35.3243 39.3954 35.6676 39.3404 35.9302 39.1646C36.4526 38.8176 36.9398 38.4186 37.4272 38.0194L37.4274 38.0193L37.4274 38.0192L37.4275 38.0192L37.4275 38.0192L37.4275 38.0192C37.7419 37.7617 38.0563 37.5042 38.3803 37.2605C38.5607 37.1261 39.015 37.026 39.0511 37.0867C39.2003 37.336 39.2741 37.6476 39.2987 37.9428C39.3081 38.0474 39.2001 38.1685 39.103 38.2773L39.1029 38.2775L39.1021 38.2784C39.0808 38.3022 39.0601 38.3255 39.0412 38.3478C36.9339 40.8521 34.3706 42.6019 31.0726 43.0939C29.3244 43.3547 28.5569 42.3461 29.2047 40.6881C29.9263 38.8398 30.6479 36.9899 31.3694 35.1401C31.3139 35.1025 31.2583 35.0632 31.2027 35.024L31.2026 35.0239L31.2025 35.0239L31.2024 35.0238L31.2023 35.0237L31.2022 35.0236C31.0048 35.2643 30.814 35.5118 30.6231 35.7594L30.6231 35.7594L30.623 35.7594L30.623 35.7595L30.623 35.7595ZM96.0801 31.881L96.0799 31.8812L96.0797 31.8814L96.0795 31.8817L96.0793 31.8819C95.8531 32.1795 95.6268 32.4772 95.399 32.7736C95.3367 32.7424 95.276 32.7113 95.2153 32.6785C95.2219 32.655 95.2283 32.6314 95.2346 32.6079L95.2441 32.5721L95.2642 32.4948C95.3 32.3563 95.3359 32.2178 95.3859 32.0848C95.5887 31.5447 95.7952 31.0057 96.0018 30.4666L96.0025 30.4647C96.4103 29.4003 96.8183 28.3357 97.198 27.2616C97.7573 25.679 97.1046 24.7475 95.4531 24.8902C92.1633 25.1756 89.7017 26.8975 87.8617 29.5641C87.7832 29.6774 87.8274 29.875 87.8716 30.0726C87.892 30.1639 87.9124 30.2553 87.9207 30.3382C87.9951 30.3285 88.0749 30.3261 88.1548 30.3237C88.33 30.3185 88.5059 30.3133 88.6275 30.23C88.9012 30.0424 89.1619 29.8342 89.4222 29.6262L89.4223 29.6261C89.8015 29.3232 90.18 29.0208 90.5971 28.7835C90.9307 28.5936 91.3257 28.5128 91.7206 28.432C91.8985 28.3956 92.0764 28.3592 92.2486 28.3128C92.2377 28.5018 92.24 28.6952 92.2422 28.8883C92.2472 29.3037 92.2521 29.7184 92.1256 30.0889C91.4865 31.9499 90.8282 33.8051 90.1698 35.6603L90.1693 35.6618L90.1689 35.6629C89.5234 37.482 88.8778 39.3012 88.2503 41.126C88.1093 41.5327 88.0978 42.1837 88.3307 42.4839C89.2573 43.6728 91.9616 43.2563 92.6094 41.9C92.7358 41.6353 92.8619 41.3703 92.988 41.1053L92.9881 41.1053L92.9881 41.1052L92.9882 41.1051L92.9882 41.105C93.5885 39.8436 94.1891 38.5817 94.8234 37.3376C96.2862 34.4693 97.7688 31.6043 99.9712 29.2099C100.534 28.5982 101.224 28.075 101.934 27.6388C102.539 27.2682 103.012 27.6306 102.954 28.3506C102.925 28.7261 102.826 29.1066 102.694 29.4608C102.062 31.1467 101.424 32.8293 100.762 34.5037C100.474 35.2295 100.175 35.9508 99.8751 36.672L99.8749 36.6725L99.8746 36.6731L99.8744 36.6737L99.8742 36.6742C99.3164 38.0173 98.7588 39.3601 98.2788 40.7307C97.7884 42.1264 98.7724 43.2579 100.255 43.13C103.884 42.8151 106.561 40.898 108.604 37.9969C108.706 37.8528 108.677 37.6173 108.649 37.3818C108.635 37.2716 108.622 37.1614 108.622 37.0605C108.526 37.086 108.423 37.1031 108.32 37.1202L108.32 37.1202C108.1 37.1568 107.88 37.1934 107.723 37.313C107.302 37.6344 106.895 37.9745 106.487 38.3146L106.487 38.3147C106.016 38.7071 105.546 39.0994 105.055 39.463C104.876 39.5953 104.619 39.6234 104.362 39.6515C104.243 39.6645 104.124 39.6775 104.012 39.7008C104.019 39.5882 104.018 39.472 104.016 39.3557C104.012 39.1062 104.008 38.8567 104.094 38.643C104.432 37.8028 104.787 36.9691 105.142 36.1355L105.142 36.1355C105.727 34.7596 106.313 33.384 106.821 31.9798C107.364 30.4825 107.779 28.9081 107.992 27.3338C108.184 25.925 107.085 24.9427 105.644 24.8689C104.316 24.8017 103.117 25.1969 101.988 25.8562C100.288 26.85 98.9512 28.2472 97.7278 29.7593C97.1644 30.4545 96.6223 31.1677 96.0801 31.881ZM122.372 24.8328C126.35 24.882 128.792 27.4682 128.582 31.4386C128.318 36.4094 125.019 41.0866 120.72 42.5544C118.929 43.1661 117.101 43.3744 115.249 42.8496C113.002 42.2116 111.631 40.7045 111.307 38.4167C110.579 33.3066 114.374 26.0989 120.909 24.9656C121.236 24.9086 121.57 24.8874 121.904 24.8662C122.06 24.8563 122.216 24.8464 122.372 24.8328ZM123.897 28.7294C123.897 28.6698 123.903 28.6073 123.909 28.5448C123.922 28.4076 123.935 28.2701 123.885 28.162C123.829 28.038 123.775 27.899 123.721 27.758C123.559 27.3355 123.39 26.8942 123.101 26.7811C122.657 26.6073 121.926 26.827 121.47 27.1157C120.912 27.4682 120.384 27.998 120.069 28.5752C119.892 28.8987 119.714 29.2219 119.535 29.5454L119.534 29.5472C118.605 31.2256 117.672 32.9123 117.002 34.6923C116.402 36.2897 116.204 38.0772 116.069 39.7992C115.963 41.1735 117.188 41.777 118.38 41.0653C118.77 40.8324 119.147 40.5192 119.421 40.16C121.985 36.7735 123.397 32.9261 123.897 28.7294ZM167.389 27.3535C166.866 25.8283 165.308 24.8672 163.355 24.864C161.255 24.8607 158.969 26.0825 157.651 27.9176C155.986 30.2234 156.076 32.7309 157.93 34.8924C158.275 35.2945 158.639 35.6798 159.003 36.0652L159.003 36.0654L159.003 36.0655C159.313 36.3937 159.624 36.7219 159.922 37.0605C159.983 37.1301 160.047 37.1998 160.11 37.27C160.418 37.6098 160.736 37.9605 160.883 38.3642C161.059 38.848 161.139 39.5089 160.942 39.9501C160.654 40.5946 159.927 40.7783 159.243 40.5733C158.759 40.4273 158.269 40.1879 157.879 39.8697C157.374 39.4582 156.904 39.0026 156.435 38.5473C156.239 38.3567 156.042 38.1661 155.844 37.9789C155.163 37.3376 154.471 37.2474 153.84 37.9215C153.42 38.3675 153.07 39.012 152.98 39.6106C152.767 41.0341 153.728 42.2346 155.348 42.8119C157.987 43.7516 161.505 42.6101 163.573 40.142C165.428 37.928 165.511 35.5582 163.745 33.282C163.341 32.7613 162.882 32.2845 162.423 31.8077C162.144 31.5185 161.866 31.2293 161.6 30.9302C161.147 30.4235 160.698 29.9085 160.311 29.3526C159.976 28.8737 159.858 28.2538 160.344 27.8602C160.693 27.5765 161.285 27.3764 161.71 27.4551C162.235 27.5519 162.749 27.9127 163.176 28.2718C163.679 28.6956 164.126 29.1896 164.57 29.6812L164.57 29.6813L164.571 29.6815L164.575 29.6862C164.641 29.7599 164.708 29.8335 164.775 29.9069C165.285 30.4678 165.856 30.4825 166.472 30.1447C167.386 29.6445 167.768 28.4588 167.389 27.3535ZM83.4452 24.864C84.649 24.7229 85.8855 26.2104 85.3312 27.4568C84.4853 29.3624 83.6994 31.2937 82.9133 33.2255L82.9132 33.2258C82.5594 34.0953 82.2056 34.9648 81.8462 35.8321C81.6805 36.2313 81.5098 36.6285 81.3391 37.0256C81.0792 37.6302 80.8194 38.2347 80.5769 38.8464C80.5088 39.0172 80.5023 39.2123 80.4957 39.4074C80.4926 39.4989 80.4896 39.5905 80.4801 39.6795C80.5741 39.6683 80.6742 39.6661 80.7743 39.6639C80.9955 39.6591 81.217 39.6543 81.3739 39.5516C81.9117 39.2014 82.4359 38.83 82.9603 38.4585C83.4354 38.1218 83.9107 37.7851 84.3964 37.4639C84.6112 37.3212 85.0163 37.2195 85.2 37.3261C85.5755 37.5443 85.6165 37.9198 85.2902 38.2921C83.0467 40.8472 80.4096 42.7266 76.928 43.1202C75.3847 43.294 74.2761 41.9673 74.8354 40.5159C75.6282 38.4578 76.4795 36.4216 77.3307 34.3855L77.3307 34.3854L77.3312 34.3841C77.6472 33.6284 77.9631 32.8727 78.276 32.1159C78.4065 31.7994 78.5414 31.4844 78.6764 31.1694L78.6765 31.1691C78.928 30.5819 79.1796 29.9946 79.4027 29.3969C79.4868 29.1725 79.5011 28.922 79.5154 28.6717C79.522 28.5561 79.5286 28.4405 79.5421 28.3276C79.4314 28.3586 79.3159 28.3822 79.2004 28.4057C78.9498 28.4568 78.699 28.5079 78.4958 28.6359C78.0478 28.917 77.6139 29.2204 77.1802 29.5236C76.7661 29.8132 76.3521 30.1027 75.9259 30.3726C75.7439 30.4874 75.2978 30.4956 75.2076 30.3759C75.0748 30.1988 75.0305 29.756 75.1584 29.6133C77.2756 27.2305 79.8209 25.5331 82.9926 24.8919C83.0795 24.8743 83.1708 24.8721 83.277 24.8697C83.3291 24.8685 83.3847 24.8672 83.4452 24.864ZM81.2216 5.90574C82.3522 7.11284 83.4533 8.28843 84.5538 9.4646C84.5096 9.53348 84.4653 9.60236 84.4226 9.67288C83.4139 9.37496 82.4058 9.07637 81.3797 8.77244C80.796 8.59955 80.2065 8.42494 79.6077 8.24774C79.5208 8.55442 79.4519 8.80041 79.3715 9.08741C81.0164 9.59908 82.5941 10.0911 84.1717 10.5831L84.1373 10.8143C82.5552 11.1883 80.9731 11.5628 79.3746 11.9412C78.3303 12.1885 77.279 12.4373 76.2162 12.6888C76.2493 12.8347 76.2789 12.9647 76.3081 13.0928C76.3426 13.244 76.3765 13.3926 76.4146 13.5613C79.137 12.925 81.7724 12.31 84.4079 11.695C84.4251 11.7269 84.4423 11.7585 84.4595 11.7901C84.4768 11.8217 84.494 11.8532 84.5112 11.8852L84.3009 12.0848C83.1456 13.1813 81.987 14.281 80.7934 15.4128C80.8624 15.4884 80.9249 15.5568 80.9835 15.621C81.1295 15.7808 81.2516 15.9143 81.392 16.0688C82.6875 14.8618 83.9044 13.7269 85.1229 12.5904C85.1379 12.6008 85.153 12.6112 85.1681 12.6217C85.2176 12.6561 85.2678 12.691 85.3181 12.7249C84.9327 14.0103 84.5477 15.2957 84.1609 16.5871C83.7676 17.9006 83.3723 19.2203 82.9729 20.5525C83.2555 20.6368 83.4647 20.6984 83.7317 20.7771L83.8208 20.8034C84.3093 19.2029 84.7925 17.6209 85.2736 16.0459C85.5886 15.0146 85.9027 13.9863 86.2168 12.9578C86.2545 12.9635 86.2918 12.9688 86.3291 12.9741C86.3664 12.9795 86.4037 12.9848 86.4415 12.9906C86.8236 14.5944 87.2057 16.1983 87.6025 17.8695C87.9141 17.8104 88.1618 17.7629 88.4685 17.7038C88.086 16.0195 87.7214 14.4176 87.3568 12.8163L87.3484 12.779C87.4205 12.7478 87.4943 12.7167 87.5665 12.6855C89.4246 14.6568 91.2827 16.628 93.1604 18.6222C93.3336 18.4862 93.4789 18.3728 93.6192 18.2633C93.702 18.1987 93.7832 18.1353 93.8673 18.0696C92.8229 16.9513 91.8123 15.8685 90.8173 14.8025C89.9372 13.8596 89.0694 12.9298 88.2011 12C88.2372 11.9426 88.2749 11.8836 88.3127 11.8262C89.3104 12.1217 90.3081 12.4166 91.3157 12.7144C91.9295 12.8959 92.5469 13.0784 93.1703 13.2628C93.2736 12.9545 93.3474 12.7331 93.4474 12.433C91.7927 11.9213 90.1921 11.426 88.5931 10.9307L88.598 10.7159C91.2351 10.0894 93.8722 9.46296 96.5913 8.81681C96.5643 8.72298 96.539 8.63507 96.5145 8.54976C96.4584 8.35475 96.4062 8.1733 96.3469 7.96567C94.8287 8.31785 93.3322 8.66436 91.8453 9.00867C90.6802 9.27843 89.521 9.54683 88.3619 9.81556C88.3455 9.78604 88.3291 9.75611 88.3127 9.72618C88.2963 9.69625 88.2799 9.66632 88.2635 9.6368C89.3418 8.6117 90.4202 7.58533 91.5186 6.53995L91.978 6.10265C91.8818 5.98812 91.7978 5.88838 91.7168 5.79225C91.6169 5.67364 91.5216 5.56053 91.4138 5.4319C90.0904 6.66189 88.8637 7.80167 87.637 8.94145C87.605 8.9234 87.5734 8.90493 87.5418 8.88647C87.5102 8.86803 87.4787 8.8496 87.4467 8.83157C87.9751 7.07523 88.5027 5.3189 89.0356 3.54498C89.2933 2.6869 89.5523 1.82471 89.8132 0.956412C89.6104 0.90034 89.4379 0.85314 89.2691 0.806933C89.1663 0.778812 89.0649 0.751058 88.9588 0.721896C88.1454 3.38522 87.3566 5.9731 86.5677 8.56098C86.4956 8.55606 86.4234 8.55278 86.3512 8.5495C86.1048 7.53375 85.8589 6.51801 85.6149 5.50992C85.4693 4.9083 85.3243 4.3094 85.1803 3.71485C84.544 3.63777 84.2914 3.80013 84.4407 4.38396C84.6637 5.25452 84.8637 6.13163 85.0637 7.00874L85.0639 7.00956C85.1519 7.40147 85.2326 7.79412 85.3134 8.18702C85.3529 8.37942 85.3924 8.57188 85.4329 8.76433C85.3992 8.77828 85.3656 8.79263 85.332 8.80699C85.2984 8.82133 85.2648 8.83568 85.2311 8.84961C84.3792 7.94358 83.5273 7.0379 82.6758 6.13272C81.6686 5.06194 80.662 3.99186 79.6569 2.92274C79.4627 3.05406 79.3 3.16386 79.1357 3.27477C79.06 3.32592 78.9838 3.3773 78.9041 3.43113C79.6956 4.27651 80.4652 5.09818 81.2216 5.90574Z" fill="white"/>
</svg>
